<svg xmlns="http://www.w3.org/2000/svg" viewBox="0 0 900 675" role="img" aria-label="城市黄昏中的散步路线插画">
  <rect width="900" height="675" fill="#f7f4ed"/>
  <circle cx="680" cy="160" r="70" fill="#f2b84b"/>
  <rect x="105" y="210" width="120" height="310" rx="6" fill="#45505a"/>
  <rect x="255" y="150" width="150" height="370" rx="6" fill="#2f3f45"/>
  <rect x="440" y="250" width="115" height="270" rx="6" fill="#637067"/>
  <rect x="585" y="205" width="190" height="315" rx="6" fill="#3a5550"/>
  <path d="M0 520h900v155H0z" fill="#dbe6dc"/>
  <path d="M130 585c125-78 228-76 312 0s185 72 328-8" fill="none" stroke="#c24739" stroke-width="12" stroke-linecap="round"/>
  <g fill="#f7f4ed">
    <rect x="135" y="250" width="26" height="26" rx="3"/>
    <rect x="179" y="250" width="26" height="26" rx="3"/>
    <rect x="295" y="200" width="28" height="28" rx="3"/>
    <rect x="345" y="200" width="28" height="28" rx="3"/>
    <rect x="625" y="255" width="30" height="30" rx="3"/>
    <rect x="675" y="255" width="30" height="30" rx="3"/>
  </g>
</svg>
